<!-- <svg xmlns="http://www.w3.org/2000/svg" aria-hidden="true" focusable="false" width="0" height="0" class="hidden">
  <defs>
    <svg id="forever" xmlns="http://www.w3.org/2000/svg" class="ionicon" viewBox="0 0 512 512">
      <path d="M256 256s-48-96-126-96c-54.12 0-98 43-98 96s43.88 96 98 96c30 0 56.45-13.18 78-32M256 256s48 96 126 96c54.12 0 98-43 98-96s-43.88-96-98-96c-29.37 0-56.66 13.75-78 32" fill="none" stroke="currentColor" stroke-linecap="round" stroke-miterlimit="10" stroke-width="48"/>
    </svg>

    <svg id="arrow" xmlns="http://www.w3.org/2000/svg" class="ionicon" viewBox="0 0 512 512">
      <path fill="none" stroke="currentColor" stroke-linecap="round" stroke-linejoin="round" stroke-width="48" d="M112 268l144 144 144-144M256 392V100"/>
    </svg>

    <svg id="love" xmlns="http://www.w3.org/2000/svg" class="ionicon" viewBox="0 0 512 512">
      <path d="M256 448a32 32 0 01-18-5.57c-78.59-53.35-112.62-89.93-131.39-112.8-40-48.75-59.15-98.8-58.61-153C48.63 114.52 98.46 64 159.08 64c44.08 0 74.61 24.83 92.39 45.51a6 6 0 009.06 0C278.31 88.81 308.84 64 352.92 64c60.62 0 110.45 50.52 111.08 112.64.54 54.21-18.63 104.26-58.61 153-18.77 22.87-52.8 59.45-131.39 112.8a32 32 0 01-18 5.56z"/>
    </svg>

    <svg id="reload" xmlns="http://www.w3.org/2000/svg" class="ionicon" viewBox="0 0 512 512">
      <path d="M320 146s24.36-12-64-12a160 160 0 10160 160" fill="none" stroke="currentColor" stroke-linecap="round" stroke-miterlimit="10" stroke-width="32"/>
      <path fill="none" stroke="currentColor" stroke-linecap="round" stroke-linejoin="round" stroke-width="32" d="M256 58l80 80-80 80"/>
    </svg>
  </defs>
</svg> -->


<svg xmlns="http://www.w3.org/2000/svg" style="display:none">

  <symbol id="forever" viewBox="0 0 512 512">
    <path d="M256 256s-48-96-126-96c-54.12 0-98 43-98 96s43.88 96 98 96c30 0 56.45-13.18 78-32M256 256s48 96 126 96c54.12 0 98-43 98-96s-43.88-96-98-96c-29.37 0-56.66 13.75-78 32" fill="none" stroke="currentColor" stroke-linecap="round" stroke-miterlimit="10" stroke-width="48"/>
  </symbol>

  <symbol id="arrow" viewBox="0 0 512 512">
    <path fill="none" stroke="currentColor" stroke-linecap="round" stroke-linejoin="round" stroke-width="48" d="M112 268l144 144 144-144M256 392V100"/>
  </symbol>

  <symbol id="love" viewBox="0 0 512 512">
    <path d="M256 448a32 32 0 01-18-5.57c-78.59-53.35-112.62-89.93-131.39-112.8-40-48.75-59.15-98.8-58.61-153C48.63 114.52 98.46 64 159.08 64c44.08 0 74.61 24.83 92.39 45.51a6 6 0 009.06 0C278.31 88.81 308.84 64 352.92 64c60.62 0 110.45 50.52 111.08 112.64.54 54.21-18.63 104.26-58.61 153-18.77 22.87-52.8 59.45-131.39 112.8a32 32 0 01-18 5.56z"/>
  </symbol>

  <symbol id="reload" viewBox="0 0 512 512">
    <path d="M320 146s24.36-12-64-12a160 160 0 10160 160" fill="none" stroke="currentColor" stroke-linecap="round" stroke-miterlimit="10" stroke-width="32"/>
    <path fill="none" stroke="currentColor" stroke-linecap="round" stroke-linejoin="round" stroke-width="32" d="M256 58l80 80-80 80"/>
  </symbol>

</svg>